REM DIRINDEX 1\2\4,1\2\5,1\2\6,1\3\7,1\3\8,1\3\9,1\3\10
REM DIRNAME cjc058,folder01,folder02,folder03,folder04,folder05,folder06,folder07,folder08,folder09
TITLE ""
FILE "b_51.mp3" MP3
  TRACK 01 AUDIO
    TITLE "0:"
    INDEX 01 00:00:00
  TRACK 02 AUDIO
    TITLE "10:cjc058_4480"
    INDEX 01 00:00:09
  TRACK 03 AUDIO
    TITLE "0:"
    INDEX 01 00:02:59
  TRACK 04 AUDIO
    TITLE "7:cjc058_4481"
    INDEX 01 00:03:27
  TRACK 05 AUDIO
    TITLE "0:"
    INDEX 01 00:04:54
  TRACK 06 AUDIO
    TITLE "8:cjc058_4482"
    INDEX 01 00:05:09
  TRACK 07 AUDIO
    TITLE "0:"
    INDEX 01 00:08:73
  TRACK 08 AUDIO
    TITLE "9:cjc058_4483"
    INDEX 01 00:09:42
  TRACK 09 AUDIO
    TITLE "0:"
    INDEX 01 00:16:73
  TRACK 10 AUDIO
    TITLE "7:cjc058_4484"
    INDEX 01 00:18:03
  TRACK 11 AUDIO
    TITLE "0:"
    INDEX 01 00:19:71
  TRACK 12 AUDIO
    TITLE "8:cjc058_4485"
    INDEX 01 00:20:26
  TRACK 13 AUDIO
    TITLE "0:"
    INDEX 01 00:22:70
  TRACK 14 AUDIO
    TITLE "9:cjc058_4486"
    INDEX 01 00:23:36
  TRACK 15 AUDIO
    TITLE "0:"
    INDEX 01 00:27:57
  TRACK 16 AUDIO
    TITLE "7:cjc058_4487"
    INDEX 01 00:28:59
  TRACK 17 AUDIO
    TITLE "0:"
    INDEX 01 00:30:05
  TRACK 18 AUDIO
    TITLE "8:cjc058_4488"
    INDEX 01 00:30:34
  TRACK 19 AUDIO
    TITLE "0:"
    INDEX 01 00:32:03
  TRACK 20 AUDIO
    TITLE "9:cjc058_4489"
    INDEX 01 00:32:41
  TRACK 21 AUDIO
    TITLE "0:"
    INDEX 01 00:36:21
  TRACK 22 AUDIO
    TITLE "7:cjc058_4490"
    INDEX 01 00:37:22
  TRACK 23 AUDIO
    TITLE "0:"
    INDEX 01 00:39:07
  TRACK 24 AUDIO
    TITLE "8:cjc058_4491"
    INDEX 01 00:39:37
  TRACK 25 AUDIO
    TITLE "0:"
    INDEX 01 00:41:22
  TRACK 26 AUDIO
    TITLE "9:cjc058_4492"
    INDEX 01 00:41:59
  TRACK 27 AUDIO
    TITLE "0:"
    INDEX 01 00:46:60
  TRACK 28 AUDIO
    TITLE "7:cjc058_4493"
    INDEX 01 00:47:64
  TRACK 29 AUDIO
    TITLE "0:"
    INDEX 01 00:49:51
  TRACK 30 AUDIO
    TITLE "8:cjc058_4494"
    INDEX 01 00:50:05
  TRACK 31 AUDIO
    TITLE "0:"
    INDEX 01 00:52:00
  TRACK 32 AUDIO
    TITLE "9:cjc058_4495"
    INDEX 01 00:52:43
  TRACK 33 AUDIO
    TITLE "0:"
    INDEX 01 00:58:07
  TRACK 34 AUDIO
    TITLE "7:cjc058_4496"
    INDEX 01 00:59:10
  TRACK 35 AUDIO
    TITLE "0:"
    INDEX 01 01:03:22
  TRACK 36 AUDIO
    TITLE "8:cjc058_4497"
    INDEX 01 01:03:51
  TRACK 37 AUDIO
    TITLE "0:"
    INDEX 01 01:06:47
  TRACK 38 AUDIO
    TITLE "9:cjc058_4498"
    INDEX 01 01:07:14
  TRACK 39 AUDIO
    TITLE "0:"
    INDEX 01 01:12:11
  TRACK 40 AUDIO
    TITLE "7:cjc058_4499"
    INDEX 01 01:13:14
  TRACK 41 AUDIO
    TITLE "0:"
    INDEX 01 01:14:23
  TRACK 42 AUDIO
    TITLE "8:cjc058_4500"
    INDEX 01 01:14:53
  TRACK 43 AUDIO
    TITLE "0:"
    INDEX 01 01:16:36
  TRACK 44 AUDIO
    TITLE "9:cjc058_4501"
    INDEX 01 01:17:00
  TRACK 45 AUDIO
    TITLE "0:"
    INDEX 01 01:21:55
  TRACK 46 AUDIO
    TITLE "7:cjc058_4502"
    INDEX 01 01:22:60
  TRACK 47 AUDIO
    TITLE "0:"
    INDEX 01 01:24:28
  TRACK 48 AUDIO
    TITLE "8:cjc058_4503"
    INDEX 01 01:24:57
  TRACK 49 AUDIO
    TITLE "0:"
    INDEX 01 01:26:13
  TRACK 50 AUDIO
    TITLE "9:cjc058_4504"
    INDEX 01 01:26:54
  TRACK 51 AUDIO
    TITLE "0:"
    INDEX 01 01:36:41
  TRACK 52 AUDIO
    TITLE "7:cjc058_4505"
    INDEX 01 01:37:46
  TRACK 53 AUDIO
    TITLE "0:"
    INDEX 01 01:39:19
  TRACK 54 AUDIO
    TITLE "8:cjc058_4506"
    INDEX 01 01:39:49
  TRACK 55 AUDIO
    TITLE "0:"
    INDEX 01 01:41:03
  TRACK 56 AUDIO
    TITLE "9:cjc058_4507"
    INDEX 01 01:41:44
  TRACK 57 AUDIO
    TITLE "0:"
    INDEX 01 01:45:53
  TRACK 58 AUDIO
    TITLE "7:cjc058_4508"
    INDEX 01 01:46:57
  TRACK 59 AUDIO
    TITLE "0:"
    INDEX 01 01:48:71
  TRACK 60 AUDIO
    TITLE "8:cjc058_4509"
    INDEX 01 01:49:26
  TRACK 61 AUDIO
    TITLE "0:"
    INDEX 01 01:50:64
  TRACK 62 AUDIO
    TITLE "9:cjc058_4510"
    INDEX 01 01:51:30
  TRACK 63 AUDIO
    TITLE "0:"
    INDEX 01 01:55:32
  TRACK 64 AUDIO
    TITLE "7:cjc058_4511"
    INDEX 01 01:56:36
  TRACK 65 AUDIO
    TITLE "0:"
    INDEX 01 01:58:30
  TRACK 66 AUDIO
    TITLE "8:cjc058_4512"
    INDEX 01 01:58:58
  TRACK 67 AUDIO
    TITLE "0:"
    INDEX 01 02:01:33
  TRACK 68 AUDIO
    TITLE "9:cjc058_4513"
    INDEX 01 02:02:01
  TRACK 69 AUDIO
    TITLE "0:"
    INDEX 01 02:05:40
  TRACK 70 AUDIO
    TITLE "7:cjc058_4514"
    INDEX 01 02:06:44
  TRACK 71 AUDIO
    TITLE "0:"
    INDEX 01 02:08:23
  TRACK 72 AUDIO
    TITLE "8:cjc058_4515"
    INDEX 01 02:08:52
  TRACK 73 AUDIO
    TITLE "0:"
    INDEX 01 02:10:38
  TRACK 74 AUDIO
    TITLE "9:cjc058_4516"
    INDEX 01 02:11:00
  TRACK 75 AUDIO
    TITLE "0:"
    INDEX 01 02:14:04
  TRACK 76 AUDIO
    TITLE "7:cjc058_4517"
    INDEX 01 02:15:09
  TRACK 77 AUDIO
    TITLE "0:"
    INDEX 01 02:16:64
  TRACK 78 AUDIO
    TITLE "8:cjc058_4518"
    INDEX 01 02:17:18
  TRACK 79 AUDIO
    TITLE "0:"
    INDEX 01 02:20:36
  TRACK 80 AUDIO
    TITLE "9:cjc058_4519"
    INDEX 01 02:21:04
  TRACK 81 AUDIO
    TITLE "0:"
    INDEX 01 02:24:61
  TRACK 82 AUDIO
    TITLE "7:cjc058_4520"
    INDEX 01 02:25:65
  TRACK 83 AUDIO
    TITLE "0:"
    INDEX 01 02:27:62
  TRACK 84 AUDIO
    TITLE "8:cjc058_4521"
    INDEX 01 02:28:16
  TRACK 85 AUDIO
    TITLE "0:"
    INDEX 01 02:30:42
  TRACK 86 AUDIO
    TITLE "9:cjc058_4522"
    INDEX 01 02:31:08
  TRACK 87 AUDIO
    TITLE "0:"
    INDEX 01 02:34:05
  TRACK 88 AUDIO
    TITLE "7:cjc058_4523"
    INDEX 01 02:35:10
  TRACK 89 AUDIO
    TITLE "0:"
    INDEX 01 02:37:09
  TRACK 90 AUDIO
    TITLE "8:cjc058_4524"
    INDEX 01 02:37:38
  TRACK 91 AUDIO
    TITLE "0:"
    INDEX 01 02:39:39
  TRACK 92 AUDIO
    TITLE "9:cjc058_4525"
    INDEX 01 02:40:07
  TRACK 93 AUDIO
    TITLE "0:"
    INDEX 01 02:43:27
  TRACK 94 AUDIO
    TITLE "7:cjc058_4526"
    INDEX 01 02:44:31
  TRACK 95 AUDIO
    TITLE "0:"
    INDEX 01 02:46:12
  TRACK 96 AUDIO
    TITLE "8:cjc058_4527"
    INDEX 01 02:46:39
  TRACK 97 AUDIO
    TITLE "0:"
    INDEX 01 02:48:13
  TRACK 98 AUDIO
    TITLE "9:cjc058_4528"
    INDEX 01 02:48:50
  TRACK 99 AUDIO
    TITLE "0:"
    INDEX 01 02:51:25
  TRACK 100 AUDIO
    TITLE "7:cjc058_4529"
    INDEX 01 02:52:30
  TRACK 101 AUDIO
    TITLE "0:"
    INDEX 01 02:54:09
  TRACK 102 AUDIO
    TITLE "8:cjc058_4530"
    INDEX 01 02:54:39
  TRACK 103 AUDIO
    TITLE "0:"
    INDEX 01 02:57:25
  TRACK 104 AUDIO
    TITLE "9:cjc058_4531"
    INDEX 01 02:57:67
  TRACK 105 AUDIO
    TITLE "0:"
    INDEX 01 03:00:16
  TRACK 106 AUDIO
    TITLE "7:cjc058_4532"
    INDEX 01 03:01:19
  TRACK 107 AUDIO
    TITLE "0:"
    INDEX 01 03:03:06
  TRACK 108 AUDIO
    TITLE "8:cjc058_4533"
    INDEX 01 03:03:36
  TRACK 109 AUDIO
    TITLE "0:"
    INDEX 01 03:05:50
  TRACK 110 AUDIO
    TITLE "9:cjc058_4534"
    INDEX 01 03:06:17
  TRACK 111 AUDIO
    TITLE "0:"
    INDEX 01 03:10:26
  TRACK 112 AUDIO
    TITLE "7:cjc058_4535"
    INDEX 01 03:11:27
  TRACK 113 AUDIO
    TITLE "0:"
    INDEX 01 03:13:11
  TRACK 114 AUDIO
    TITLE "8:cjc058_4536"
    INDEX 01 03:13:40
  TRACK 115 AUDIO
    TITLE "0:"
    INDEX 01 03:16:25
  TRACK 116 AUDIO
    TITLE "9:cjc058_4537"
    INDEX 01 03:16:64
  TRACK 117 AUDIO
    TITLE "0:"
    INDEX 01 03:20:66
  TRACK 118 AUDIO
    TITLE "7:cjc058_4538"
    INDEX 01 03:21:69
  TRACK 119 AUDIO
    TITLE "0:"
    INDEX 01 03:23:42
  TRACK 120 AUDIO
    TITLE "8:cjc058_4539"
    INDEX 01 03:23:72
  TRACK 121 AUDIO
    TITLE "0:"
    INDEX 01 03:26:04
  TRACK 122 AUDIO
    TITLE "9:cjc058_4540"
    INDEX 01 03:26:45
  TRACK 123 AUDIO
    TITLE "0:"
    INDEX 01 03:29:31
  TRACK 124 AUDIO
    TITLE "7:cjc058_4541"
    INDEX 01 03:30:33
  TRACK 125 AUDIO
    TITLE "0:"
    INDEX 01 03:32:08
  TRACK 126 AUDIO
    TITLE "8:cjc058_4542"
    INDEX 01 03:32:36
  TRACK 127 AUDIO
    TITLE "0:"
    INDEX 01 03:36:25
  TRACK 128 AUDIO
    TITLE "9:cjc058_4543"
    INDEX 01 03:36:67
  TRACK 129 AUDIO
    TITLE "0:"
    INDEX 01 03:40:70
  TRACK 130 AUDIO
    TITLE "7:cjc058_4544"
    INDEX 01 03:42:01
  TRACK 131 AUDIO
    TITLE "0:"
    INDEX 01 03:43:37
  TRACK 132 AUDIO
    TITLE "8:cjc058_4545"
    INDEX 01 03:43:67
  TRACK 133 AUDIO
    TITLE "0:"
    INDEX 01 03:47:10
  TRACK 134 AUDIO
    TITLE "9:cjc058_4546"
    INDEX 01 03:47:47
  TRACK 135 AUDIO
    TITLE "0:"
    INDEX 01 03:51:58
  TRACK 136 AUDIO
    TITLE "7:cjc058_4547"
    INDEX 01 03:52:62
  TRACK 137 AUDIO
    TITLE "0:"
    INDEX 01 03:54:51
  TRACK 138 AUDIO
    TITLE "8:cjc058_4548"
    INDEX 01 03:55:05
  TRACK 139 AUDIO
    TITLE "0:"
    INDEX 01 03:58:11
  TRACK 140 AUDIO
    TITLE "9:cjc058_4549"
    INDEX 01 03:58:53
  TRACK 141 AUDIO
    TITLE "0:"
    INDEX 01 04:03:56
  TRACK 142 AUDIO
    TITLE "7:cjc058_4550"
    INDEX 01 04:04:65
  TRACK 143 AUDIO
    TITLE "0:"
    INDEX 01 04:07:06
  TRACK 144 AUDIO
    TITLE "8:cjc058_4551"
    INDEX 01 04:07:36
  TRACK 145 AUDIO
    TITLE "0:"
    INDEX 01 04:09:74
  TRACK 146 AUDIO
    TITLE "9:cjc058_4552"
    INDEX 01 04:10:42
  TRACK 147 AUDIO
    TITLE "0:"
    INDEX 01 04:14:69
  TRACK 148 AUDIO
    TITLE "7:cjc058_4553"
    INDEX 01 04:16:00
  TRACK 149 AUDIO
    TITLE "0:"
    INDEX 01 04:17:66
  TRACK 150 AUDIO
    TITLE "8:cjc058_4554"
    INDEX 01 04:18:20
  TRACK 151 AUDIO
    TITLE "0:"
    INDEX 01 04:22:67
  TRACK 152 AUDIO
    TITLE "9:cjc058_4555"
    INDEX 01 04:23:29
  TRACK 153 AUDIO
    TITLE "0:"
    INDEX 01 04:27:44
  TRACK 154 AUDIO
    TITLE "7:cjc058_4556"
    INDEX 01 04:28:48
  TRACK 155 AUDIO
    TITLE "0:"
    INDEX 01 04:31:01
  TRACK 156 AUDIO
    TITLE "8:cjc058_4557"
    INDEX 01 04:31:30
  TRACK 157 AUDIO
    TITLE "0:"
    INDEX 01 04:33:27
  TRACK 158 AUDIO
    TITLE "9:cjc058_4558"
    INDEX 01 04:33:70
  TRACK 159 AUDIO
    TITLE "0:"
    INDEX 01 04:38:30
  TRACK 160 AUDIO
    TITLE "7:cjc058_4559"
    INDEX 01 04:39:34
  TRACK 161 AUDIO
    TITLE "0:"
    INDEX 01 04:41:54
  TRACK 162 AUDIO
    TITLE "8:cjc058_4560"
    INDEX 01 04:42:07
  TRACK 163 AUDIO
    TITLE "0:"
    INDEX 01 04:43:47
  TRACK 164 AUDIO
    TITLE "9:cjc058_4561"
    INDEX 01 04:44:15
  TRACK 165 AUDIO
    TITLE "0:"
    INDEX 01 04:49:36
